<mxfile host="app.diagrams.net" agent="Mozilla/5.0 (Macintosh; Intel Mac OS X 10_15_7) AppleWebKit/537.36 (KHTML, like Gecko) Chrome/131.0.0.0 Safari/537.36" version="25.0.3">
  <diagram name="Page-1" id="fjVdwDyQPhlRmP4DmxVx">
    <mxGraphModel dx="2466" dy="2093" grid="1" gridSize="10" guides="1" tooltips="1" connect="1" arrows="1" fold="1" page="1" pageScale="1" pageWidth="827" pageHeight="1169" math="0" shadow="0">
      <root>
        <mxCell id="0" />
        <mxCell id="1" parent="0" />
        <mxCell id="tDgu_Xf9yMOV2VJoMn5k-5" value="" style="group" parent="1" vertex="1" connectable="0">
          <mxGeometry x="-130" y="146.38" width="160" height="100" as="geometry" />
        </mxCell>
        <mxCell id="tDgu_Xf9yMOV2VJoMn5k-1" value="Producers" style="rounded=0;whiteSpace=wrap;html=1;" parent="tDgu_Xf9yMOV2VJoMn5k-5" vertex="1">
          <mxGeometry width="100" height="40" as="geometry" />
        </mxCell>
        <mxCell id="tDgu_Xf9yMOV2VJoMn5k-2" value="Producers" style="rounded=0;whiteSpace=wrap;html=1;" parent="tDgu_Xf9yMOV2VJoMn5k-5" vertex="1">
          <mxGeometry x="30" y="30" width="100" height="40" as="geometry" />
        </mxCell>
        <mxCell id="tDgu_Xf9yMOV2VJoMn5k-3" value="Producers" style="rounded=0;whiteSpace=wrap;html=1;" parent="tDgu_Xf9yMOV2VJoMn5k-5" vertex="1">
          <mxGeometry x="60" y="60" width="100" height="40" as="geometry" />
        </mxCell>
        <mxCell id="tDgu_Xf9yMOV2VJoMn5k-21" value="&lt;div style=&quot;&quot;&gt;&lt;span style=&quot;background-color: initial;&quot;&gt;Event Queue events like for&lt;/span&gt;&lt;/div&gt;&lt;div style=&quot;&quot;&gt;payment_success&lt;/div&gt;&lt;div style=&quot;&quot;&gt;payment failure&lt;/div&gt;&lt;div style=&quot;&quot;&gt;messages&lt;/div&gt;" style="text;html=1;align=center;verticalAlign=middle;resizable=0;points=[];autosize=1;strokeColor=none;fillColor=none;" parent="1" vertex="1">
          <mxGeometry x="140" y="246.38" width="170" height="70" as="geometry" />
        </mxCell>
        <mxCell id="tDgu_Xf9yMOV2VJoMn5k-165" style="edgeStyle=orthogonalEdgeStyle;rounded=0;orthogonalLoop=1;jettySize=auto;html=1;" parent="1" source="tDgu_Xf9yMOV2VJoMn5k-58" edge="1">
          <mxGeometry relative="1" as="geometry">
            <mxPoint x="810" y="196.3800000000001" as="targetPoint" />
          </mxGeometry>
        </mxCell>
        <mxCell id="tDgu_Xf9yMOV2VJoMn5k-170" style="edgeStyle=orthogonalEdgeStyle;rounded=0;orthogonalLoop=1;jettySize=auto;html=1;exitX=0;exitY=0.75;exitDx=0;exitDy=0;entryX=0.75;entryY=0;entryDx=0;entryDy=0;" parent="1" source="tDgu_Xf9yMOV2VJoMn5k-58" target="tDgu_Xf9yMOV2VJoMn5k-86" edge="1">
          <mxGeometry relative="1" as="geometry">
            <Array as="points">
              <mxPoint x="440" y="234" />
              <mxPoint x="440" y="290" />
              <mxPoint x="283" y="290" />
            </Array>
          </mxGeometry>
        </mxCell>
        <mxCell id="tDgu_Xf9yMOV2VJoMn5k-58" value="Webhook Controller&lt;div&gt;constructs the tasks for each client and send them&lt;/div&gt;" style="rounded=0;whiteSpace=wrap;html=1;" parent="1" vertex="1">
          <mxGeometry x="450" y="121.38" width="160" height="150" as="geometry" />
        </mxCell>
        <mxCell id="tDgu_Xf9yMOV2VJoMn5k-60" value="" style="shape=cylinder3;whiteSpace=wrap;html=1;boundedLbl=1;backgroundOutline=1;size=15;" parent="1" vertex="1">
          <mxGeometry x="580" y="100" width="60" height="56.38" as="geometry" />
        </mxCell>
        <mxCell id="tDgu_Xf9yMOV2VJoMn5k-61" value="Cache for maintaining&lt;div&gt;event to client configs&lt;/div&gt;" style="text;html=1;align=center;verticalAlign=middle;resizable=0;points=[];autosize=1;strokeColor=none;fillColor=none;" parent="1" vertex="1">
          <mxGeometry x="637" y="107" width="140" height="40" as="geometry" />
        </mxCell>
        <mxCell id="tDgu_Xf9yMOV2VJoMn5k-65" value="" style="group" parent="1" vertex="1" connectable="0">
          <mxGeometry x="1030" y="-110" width="160" height="100" as="geometry" />
        </mxCell>
        <mxCell id="tDgu_Xf9yMOV2VJoMn5k-66" value="Client" style="rounded=0;whiteSpace=wrap;html=1;" parent="tDgu_Xf9yMOV2VJoMn5k-65" vertex="1">
          <mxGeometry width="100" height="40" as="geometry" />
        </mxCell>
        <mxCell id="tDgu_Xf9yMOV2VJoMn5k-68" value="Client" style="rounded=0;whiteSpace=wrap;html=1;" parent="tDgu_Xf9yMOV2VJoMn5k-65" vertex="1">
          <mxGeometry x="30" y="30" width="100" height="40" as="geometry" />
        </mxCell>
        <mxCell id="tDgu_Xf9yMOV2VJoMn5k-69" value="Client" style="rounded=0;whiteSpace=wrap;html=1;" parent="tDgu_Xf9yMOV2VJoMn5k-65" vertex="1">
          <mxGeometry x="60" y="60" width="100" height="40" as="geometry" />
        </mxCell>
        <mxCell id="tDgu_Xf9yMOV2VJoMn5k-81" value="" style="group" parent="1" vertex="1" connectable="0">
          <mxGeometry x="110" y="156.38" width="230" height="80" as="geometry" />
        </mxCell>
        <mxCell id="tDgu_Xf9yMOV2VJoMn5k-28" value="" style="rounded=0;whiteSpace=wrap;html=1;" parent="tDgu_Xf9yMOV2VJoMn5k-81" vertex="1">
          <mxGeometry width="230" height="80" as="geometry" />
        </mxCell>
        <mxCell id="tDgu_Xf9yMOV2VJoMn5k-26" value="" style="group" parent="tDgu_Xf9yMOV2VJoMn5k-81" vertex="1" connectable="0">
          <mxGeometry x="70" y="13.620000000000005" width="90" height="52.75" as="geometry" />
        </mxCell>
        <mxCell id="tDgu_Xf9yMOV2VJoMn5k-17" value="" style="verticalLabelPosition=bottom;html=1;verticalAlign=top;align=center;strokeColor=none;fillColor=#00BEF2;shape=mxgraph.azure.queue_generic;pointerEvents=1;strokeWidth=3;" parent="tDgu_Xf9yMOV2VJoMn5k-26" vertex="1">
          <mxGeometry y="30.25" width="90" height="22.5" as="geometry" />
        </mxCell>
        <mxCell id="tDgu_Xf9yMOV2VJoMn5k-23" value="" style="verticalLabelPosition=bottom;html=1;verticalAlign=top;align=center;strokeColor=none;fillColor=#00BEF2;shape=mxgraph.azure.queue_generic;pointerEvents=1;strokeWidth=3;" parent="tDgu_Xf9yMOV2VJoMn5k-26" vertex="1">
          <mxGeometry width="90" height="22.5" as="geometry" />
        </mxCell>
        <mxCell id="tDgu_Xf9yMOV2VJoMn5k-85" value="" style="group" parent="1" vertex="1" connectable="0">
          <mxGeometry x="110" y="345" width="230" height="80" as="geometry" />
        </mxCell>
        <mxCell id="tDgu_Xf9yMOV2VJoMn5k-86" value="" style="rounded=0;whiteSpace=wrap;html=1;" parent="tDgu_Xf9yMOV2VJoMn5k-85" vertex="1">
          <mxGeometry width="230" height="80" as="geometry" />
        </mxCell>
        <mxCell id="tDgu_Xf9yMOV2VJoMn5k-87" value="" style="group" parent="tDgu_Xf9yMOV2VJoMn5k-85" vertex="1" connectable="0">
          <mxGeometry x="70" y="13.620000000000005" width="90" height="52.75" as="geometry" />
        </mxCell>
        <mxCell id="tDgu_Xf9yMOV2VJoMn5k-88" value="" style="verticalLabelPosition=bottom;html=1;verticalAlign=top;align=center;strokeColor=none;fillColor=#00BEF2;shape=mxgraph.azure.queue_generic;pointerEvents=1;strokeWidth=3;" parent="tDgu_Xf9yMOV2VJoMn5k-87" vertex="1">
          <mxGeometry y="30.25" width="90" height="22.5" as="geometry" />
        </mxCell>
        <mxCell id="tDgu_Xf9yMOV2VJoMn5k-89" value="" style="verticalLabelPosition=bottom;html=1;verticalAlign=top;align=center;strokeColor=none;fillColor=#00BEF2;shape=mxgraph.azure.queue_generic;pointerEvents=1;strokeWidth=3;" parent="tDgu_Xf9yMOV2VJoMn5k-87" vertex="1">
          <mxGeometry width="90" height="22.5" as="geometry" />
        </mxCell>
        <mxCell id="tDgu_Xf9yMOV2VJoMn5k-172" style="edgeStyle=orthogonalEdgeStyle;rounded=0;orthogonalLoop=1;jettySize=auto;html=1;entryX=0.5;entryY=1;entryDx=0;entryDy=0;" parent="1" source="tDgu_Xf9yMOV2VJoMn5k-100" target="tDgu_Xf9yMOV2VJoMn5k-145" edge="1">
          <mxGeometry relative="1" as="geometry">
            <mxPoint x="1050" y="510" as="targetPoint" />
            <Array as="points">
              <mxPoint x="530" y="630" />
              <mxPoint x="1180" y="630" />
            </Array>
          </mxGeometry>
        </mxCell>
        <mxCell id="tDgu_Xf9yMOV2VJoMn5k-100" value="Webhook worker for each client event with internal Kafka based retries" style="rounded=0;whiteSpace=wrap;html=1;" parent="1" vertex="1">
          <mxGeometry x="450" y="321" width="160" height="150" as="geometry" />
        </mxCell>
        <mxCell id="tDgu_Xf9yMOV2VJoMn5k-106" style="edgeStyle=orthogonalEdgeStyle;rounded=0;orthogonalLoop=1;jettySize=auto;html=1;entryX=0;entryY=0.5;entryDx=0;entryDy=0;" parent="1" source="tDgu_Xf9yMOV2VJoMn5k-2" target="tDgu_Xf9yMOV2VJoMn5k-28" edge="1">
          <mxGeometry relative="1" as="geometry" />
        </mxCell>
        <mxCell id="tDgu_Xf9yMOV2VJoMn5k-113" value="&lt;div style=&quot;&quot;&gt;&lt;span style=&quot;background-color: initial;&quot;&gt;Events queued for each client&lt;br&gt;&lt;/span&gt;&lt;/div&gt;&lt;div style=&quot;&quot;&gt;&lt;span style=&quot;background-color: initial;&quot;&gt;Topic per event and client&lt;/span&gt;&lt;/div&gt;" style="text;html=1;align=center;verticalAlign=middle;resizable=0;points=[];autosize=1;strokeColor=none;fillColor=none;" parent="1" vertex="1">
          <mxGeometry x="135" y="431" width="180" height="40" as="geometry" />
        </mxCell>
        <mxCell id="i73wf1JpaBVuaC487mQT-4" style="edgeStyle=orthogonalEdgeStyle;rounded=0;orthogonalLoop=1;jettySize=auto;html=1;entryX=1;entryY=0.75;entryDx=0;entryDy=0;" edge="1" parent="1" source="tDgu_Xf9yMOV2VJoMn5k-119" target="tDgu_Xf9yMOV2VJoMn5k-100">
          <mxGeometry relative="1" as="geometry" />
        </mxCell>
        <mxCell id="tDgu_Xf9yMOV2VJoMn5k-119" value="Cron Jobs for failed messages" style="rounded=0;whiteSpace=wrap;html=1;" parent="1" vertex="1">
          <mxGeometry x="746.5" y="404" width="207" height="60" as="geometry" />
        </mxCell>
        <mxCell id="tDgu_Xf9yMOV2VJoMn5k-122" value="" style="group" parent="1" vertex="1" connectable="0">
          <mxGeometry x="291" y="-150" width="563" height="180" as="geometry" />
        </mxCell>
        <mxCell id="tDgu_Xf9yMOV2VJoMn5k-116" value="Webhook Registration Services" style="rounded=0;whiteSpace=wrap;html=1;" parent="tDgu_Xf9yMOV2VJoMn5k-122" vertex="1">
          <mxGeometry width="530" height="120" as="geometry" />
        </mxCell>
        <mxCell id="tDgu_Xf9yMOV2VJoMn5k-59" value="&lt;span style=&quot;text-wrap-mode: nowrap;&quot;&gt;Relation DB&lt;/span&gt;&lt;span style=&quot;text-wrap-mode: nowrap; background-color: initial;&quot;&gt;to store&lt;/span&gt;&lt;div&gt;&lt;div style=&quot;text-wrap-mode: nowrap;&quot;&gt;webhook&lt;/div&gt;&lt;div style=&quot;text-wrap-mode: nowrap;&quot;&gt;configurations&lt;/div&gt;&lt;/div&gt;" style="shape=cylinder3;whiteSpace=wrap;html=1;boundedLbl=1;backgroundOutline=1;size=15;" parent="tDgu_Xf9yMOV2VJoMn5k-122" vertex="1">
          <mxGeometry x="453" y="70" width="110" height="110" as="geometry" />
        </mxCell>
        <mxCell id="tDgu_Xf9yMOV2VJoMn5k-125" style="edgeStyle=orthogonalEdgeStyle;rounded=0;orthogonalLoop=1;jettySize=auto;html=1;entryX=1;entryY=0.5;entryDx=0;entryDy=0;" parent="1" source="tDgu_Xf9yMOV2VJoMn5k-66" target="tDgu_Xf9yMOV2VJoMn5k-116" edge="1">
          <mxGeometry relative="1" as="geometry" />
        </mxCell>
        <mxCell id="tDgu_Xf9yMOV2VJoMn5k-128" value="Send failed messages to queue again" style="text;html=1;align=center;verticalAlign=middle;resizable=0;points=[];autosize=1;strokeColor=none;fillColor=none;" parent="1" vertex="1">
          <mxGeometry x="746.5" y="441" width="220" height="30" as="geometry" />
        </mxCell>
        <mxCell id="tDgu_Xf9yMOV2VJoMn5k-131" value="" style="endArrow=none;dashed=1;html=1;rounded=0;" parent="1" edge="1">
          <mxGeometry width="50" height="50" relative="1" as="geometry">
            <mxPoint x="70" y="50" as="sourcePoint" />
            <mxPoint x="980" y="50" as="targetPoint" />
          </mxGeometry>
        </mxCell>
        <mxCell id="tDgu_Xf9yMOV2VJoMn5k-132" style="edgeStyle=orthogonalEdgeStyle;rounded=0;orthogonalLoop=1;jettySize=auto;html=1;entryX=0.45;entryY=0.99;entryDx=0;entryDy=0;entryPerimeter=0;" parent="1" source="tDgu_Xf9yMOV2VJoMn5k-58" target="tDgu_Xf9yMOV2VJoMn5k-116" edge="1">
          <mxGeometry relative="1" as="geometry" />
        </mxCell>
        <mxCell id="tDgu_Xf9yMOV2VJoMn5k-133" style="edgeStyle=orthogonalEdgeStyle;rounded=0;orthogonalLoop=1;jettySize=auto;html=1;entryX=0;entryY=0.5;entryDx=0;entryDy=0;" parent="1" source="tDgu_Xf9yMOV2VJoMn5k-28" target="tDgu_Xf9yMOV2VJoMn5k-58" edge="1">
          <mxGeometry relative="1" as="geometry" />
        </mxCell>
        <mxCell id="tDgu_Xf9yMOV2VJoMn5k-142" value="" style="group" parent="1" vertex="1" connectable="0">
          <mxGeometry x="1070" y="425" width="160" height="100" as="geometry" />
        </mxCell>
        <mxCell id="tDgu_Xf9yMOV2VJoMn5k-143" value="Client" style="rounded=0;whiteSpace=wrap;html=1;" parent="tDgu_Xf9yMOV2VJoMn5k-142" vertex="1">
          <mxGeometry width="100" height="40" as="geometry" />
        </mxCell>
        <mxCell id="tDgu_Xf9yMOV2VJoMn5k-144" value="Client" style="rounded=0;whiteSpace=wrap;html=1;" parent="tDgu_Xf9yMOV2VJoMn5k-142" vertex="1">
          <mxGeometry x="30" y="30" width="100" height="40" as="geometry" />
        </mxCell>
        <mxCell id="tDgu_Xf9yMOV2VJoMn5k-145" value="Client" style="rounded=0;whiteSpace=wrap;html=1;" parent="tDgu_Xf9yMOV2VJoMn5k-142" vertex="1">
          <mxGeometry x="60" y="60" width="100" height="40" as="geometry" />
        </mxCell>
        <mxCell id="tDgu_Xf9yMOV2VJoMn5k-147" value="" style="endArrow=none;dashed=1;html=1;rounded=0;" parent="1" edge="1">
          <mxGeometry width="50" height="50" relative="1" as="geometry">
            <mxPoint x="980" y="680" as="sourcePoint" />
            <mxPoint x="980" y="50" as="targetPoint" />
          </mxGeometry>
        </mxCell>
        <mxCell id="tDgu_Xf9yMOV2VJoMn5k-156" value="" style="group" parent="1" vertex="1" connectable="0">
          <mxGeometry x="740" y="130" width="220" height="154" as="geometry" />
        </mxCell>
        <mxCell id="tDgu_Xf9yMOV2VJoMn5k-96" value="" style="shape=cylinder3;whiteSpace=wrap;html=1;boundedLbl=1;backgroundOutline=1;size=15;" parent="tDgu_Xf9yMOV2VJoMn5k-156" vertex="1">
          <mxGeometry x="72.5" width="75" height="103.62" as="geometry" />
        </mxCell>
        <mxCell id="tDgu_Xf9yMOV2VJoMn5k-74" value="Webhook dynamodb metadata store&lt;div&gt;for logging status&lt;/div&gt;&lt;div&gt;Pending , Success, Failed&lt;/div&gt;" style="text;html=1;align=center;verticalAlign=middle;resizable=0;points=[];autosize=1;strokeColor=none;fillColor=none;" parent="tDgu_Xf9yMOV2VJoMn5k-156" vertex="1">
          <mxGeometry y="94" width="220" height="60" as="geometry" />
        </mxCell>
        <mxCell id="tDgu_Xf9yMOV2VJoMn5k-166" style="edgeStyle=orthogonalEdgeStyle;rounded=0;orthogonalLoop=1;jettySize=auto;html=1;entryX=0;entryY=1;entryDx=0;entryDy=-15;entryPerimeter=0;" parent="1" source="tDgu_Xf9yMOV2VJoMn5k-100" target="tDgu_Xf9yMOV2VJoMn5k-96" edge="1">
          <mxGeometry relative="1" as="geometry" />
        </mxCell>
        <mxCell id="tDgu_Xf9yMOV2VJoMn5k-169" style="edgeStyle=orthogonalEdgeStyle;rounded=0;orthogonalLoop=1;jettySize=auto;html=1;entryX=0.063;entryY=0.427;entryDx=0;entryDy=0;entryPerimeter=0;" parent="1" source="tDgu_Xf9yMOV2VJoMn5k-86" target="tDgu_Xf9yMOV2VJoMn5k-100" edge="1">
          <mxGeometry relative="1" as="geometry" />
        </mxCell>
        <mxCell id="tDgu_Xf9yMOV2VJoMn5k-173" value="" style="endArrow=none;dashed=1;html=1;rounded=0;" parent="1" edge="1">
          <mxGeometry width="50" height="50" relative="1" as="geometry">
            <mxPoint x="70" y="690" as="sourcePoint" />
            <mxPoint x="70" y="50" as="targetPoint" />
          </mxGeometry>
        </mxCell>
        <mxCell id="tDgu_Xf9yMOV2VJoMn5k-174" value="" style="endArrow=none;dashed=1;html=1;rounded=0;" parent="1" edge="1">
          <mxGeometry width="50" height="50" relative="1" as="geometry">
            <mxPoint x="70" y="690" as="sourcePoint" />
            <mxPoint x="980" y="680" as="targetPoint" />
          </mxGeometry>
        </mxCell>
      </root>
    </mxGraphModel>
  </diagram>
</mxfile>
